<svg width="79" height="16" viewBox="0 0 79 16" fill="none" xmlns="http://www.w3.org/2000/svg">
<path d="M3.18 12.78H7.78V15H0.38V1.04H3.18V12.78ZM18.1197 12.34H12.5597L11.6397 15H8.69969L13.7197 1.02H16.9797L21.9997 15H19.0397L18.1197 12.34ZM17.3597 10.1L15.3397 4.26L13.3197 10.1H17.3597ZM31.7561 15L26.6761 8.78V15H23.8761V1.04H26.6761V7.3L31.7561 1.04H35.1361L29.3761 7.96L35.2961 15H31.7561ZM41.9578 15.14C40.9845 15.14 40.1045 14.9733 39.3178 14.64C38.5445 14.3067 37.9311 13.8267 37.4778 13.2C37.0245 12.5733 36.7911 11.8333 36.7778 10.98H39.7778C39.8178 11.5533 40.0178 12.0067 40.3778 12.34C40.7511 12.6733 41.2578 12.84 41.8978 12.84C42.5511 12.84 43.0645 12.6867 43.4378 12.38C43.8111 12.06 43.9978 11.6467 43.9978 11.14C43.9978 10.7267 43.8711 10.3867 43.6178 10.12C43.3645 9.85333 43.0445 9.64667 42.6578 9.5C42.2845 9.34 41.7645 9.16667 41.0978 8.98C40.1911 8.71333 39.4511 8.45333 38.8778 8.2C38.3178 7.93333 37.8311 7.54 37.4178 7.02C37.0178 6.48667 36.8178 5.78 36.8178 4.9C36.8178 4.07333 37.0245 3.35333 37.4378 2.74C37.8511 2.12667 38.4311 1.66 39.1778 1.34C39.9245 1.00667 40.7778 0.84 41.7378 0.84C43.1778 0.84 44.3445 1.19333 45.2378 1.9C46.1445 2.59333 46.6445 3.56667 46.7378 4.82H43.6578C43.6311 4.34 43.4245 3.94667 43.0378 3.64C42.6645 3.32 42.1645 3.16 41.5378 3.16C40.9911 3.16 40.5511 3.3 40.2178 3.58C39.8978 3.86 39.7378 4.26667 39.7378 4.8C39.7378 5.17333 39.8578 5.48667 40.0978 5.74C40.3511 5.98 40.6578 6.18 41.0178 6.34C41.3911 6.48667 41.9111 6.66 42.5778 6.86C43.4845 7.12667 44.2245 7.39333 44.7978 7.66C45.3711 7.92667 45.8645 8.32667 46.2778 8.86C46.6911 9.39333 46.8978 10.0933 46.8978 10.96C46.8978 11.7067 46.7045 12.4 46.3178 13.04C45.9311 13.68 45.3645 14.1933 44.6178 14.58C43.8711 14.9533 42.9845 15.14 41.9578 15.14ZM52.1253 1.04V15H49.3253V1.04H52.1253ZM64.3917 1.04V3.3H60.6717V15H57.8717V3.3H54.1517V1.04H64.3917ZM74.9947 12.34H69.4347L68.5147 15H65.5747L70.5947 1.02H73.8547L78.8747 15H75.9147L74.9947 12.34ZM74.2347 10.1L72.2147 4.26L70.1947 10.1H74.2347Z" fill="white"/>
</svg>
